<?xml version="1.0" standalone="no"?>
<!DOCTYPE svg PUBLIC "-//W3C//DTD SVG 20010904//EN"
 "http://www.w3.org/TR/2001/REC-SVG-20010904/DTD/svg10.dtd">
<svg version="1.0" xmlns="http://www.w3.org/2000/svg"
 width="390.000000pt" height="390.000000pt" viewBox="0 0 390.000000 390.000000"
 preserveAspectRatio="xMidYMid meet">
<metadata>
Created by potrace 1.11, written by Peter Selinger 2001-2013
</metadata>
<g transform="translate(0.000000,390.000000) scale(0.100000,-0.100000)"
fill="#000000" stroke="none">
<path d="M1705 3884 c-49 -7 -124 -20 -165 -29 -41 -9 -82 -18 -91 -20 -65
-14 -254 -86 -354 -135 -368 -180 -674 -472 -856 -818 -10 -18 -22 -38 -27
-45 -13 -18 -96 -222 -121 -297 -23 -73 -57 -214 -66 -275 -20 -142 -23 -199
-21 -361 2 -99 5 -185 8 -190 3 -5 8 -31 12 -59 7 -60 8 -66 34 -175 62 -256
204 -542 377 -757 59 -73 186 -204 245 -252 25 -20 54 -44 65 -54 51 -47 241
-165 350 -217 161 -78 348 -142 480 -164 17 -3 46 -8 65 -11 92 -17 199 -23
355 -19 160 3 195 6 263 19 15 3 43 8 62 11 201 32 491 148 686 275 67 44 193
139 230 174 6 5 32 29 57 52 131 120 287 327 381 503 73 138 162 381 181 494
3 17 13 67 21 111 25 126 26 431 3 585 -75 493 -331 941 -709 1240 -36 28 -72
57 -80 64 -43 34 -217 135 -308 178 -93 45 -297 118 -368 133 -177 37 -262 47
-434 50 -114 1 -220 -3 -275 -11z"/>
</g>
</svg>
